<mxfile host="app.diagrams.net" modified="2024-02-28T07:16:49.790Z" agent="Mozilla/5.0 (Macintosh; Intel Mac OS X 10_15_7) AppleWebKit/537.36 (KHTML, like Gecko) Chrome/121.0.0.0 Safari/537.36" version="23.1.7" etag="tOJLXulZbXV9ZOszTHBP" type="github">
  <diagram name="Сторінка-1" id="BmMrJ61r58nVAreHEK5s">
    <mxGraphModel>
      <root>
        <mxCell id="0" />
        <mxCell id="1" parent="0" />
      </root>
    </mxGraphModel>
  </diagram>
</mxfile>
